<mxfile host="app.diagrams.net" modified="2023-02-07T16:35:47.418Z" agent="5.0 (Macintosh; Intel Mac OS X 10_15_7) AppleWebKit/537.36 (KHTML, like Gecko) Chrome/109.0.0.0 Safari/537.36" etag="9RnJ5hoBxcmnyLVDxoMd" version="20.8.17" type="github">
  <diagram name="Page-1" id="s7Z92FYtfd4AjHY4wwW-">
    <mxGraphModel dx="714" dy="494" grid="1" gridSize="10" guides="1" tooltips="1" connect="1" arrows="1" fold="1" page="1" pageScale="1" pageWidth="827" pageHeight="1169" math="0" shadow="0">
      <root>
        <mxCell id="0" />
        <mxCell id="1" parent="0" />
        <mxCell id="HJmFfL-IA-otd9AgBnYl-1" value="(ES,EF)&lt;br&gt;Specification&lt;br&gt;(0, 15)" style="rounded=0;whiteSpace=wrap;html=1;" vertex="1" parent="1">
          <mxGeometry x="40" y="260" width="120" height="60" as="geometry" />
        </mxCell>
        <mxCell id="HJmFfL-IA-otd9AgBnYl-2" value="(ES,EF)&lt;br&gt;Design&lt;br&gt;Database&lt;br&gt;(15, 60)" style="rounded=0;whiteSpace=wrap;html=1;" vertex="1" parent="1">
          <mxGeometry x="230" y="100" width="120" height="60" as="geometry" />
        </mxCell>
        <mxCell id="HJmFfL-IA-otd9AgBnYl-3" value="(ES,EF)&lt;br&gt;Design GUI&lt;br&gt;(15, 45)" style="rounded=0;whiteSpace=wrap;html=1;" vertex="1" parent="1">
          <mxGeometry x="230" y="230" width="120" height="60" as="geometry" />
        </mxCell>
        <mxCell id="HJmFfL-IA-otd9AgBnYl-4" value="(ES,EF)&lt;br&gt;Design Functions&lt;br&gt;(15, 55)" style="rounded=0;whiteSpace=wrap;html=1;" vertex="1" parent="1">
          <mxGeometry x="230" y="360" width="120" height="60" as="geometry" />
        </mxCell>
        <mxCell id="HJmFfL-IA-otd9AgBnYl-5" value="(ES,EF)&lt;br style=&quot;border-color: var(--border-color);&quot;&gt;Document&lt;br style=&quot;border-color: var(--border-color);&quot;&gt;(15, 75)" style="rounded=0;whiteSpace=wrap;html=1;" vertex="1" parent="1">
          <mxGeometry x="380" y="480" width="120" height="60" as="geometry" />
        </mxCell>
        <mxCell id="HJmFfL-IA-otd9AgBnYl-6" value="(ES,EF)&lt;br style=&quot;border-color: var(--border-color);&quot;&gt;Code&lt;br style=&quot;border-color: var(--border-color);&quot;&gt;Database&lt;br style=&quot;border-color: var(--border-color);&quot;&gt;(60, 165)" style="rounded=0;whiteSpace=wrap;html=1;" vertex="1" parent="1">
          <mxGeometry x="410" y="100" width="120" height="60" as="geometry" />
        </mxCell>
        <mxCell id="HJmFfL-IA-otd9AgBnYl-7" value="(ES,EF)&lt;br style=&quot;border-color: var(--border-color);&quot;&gt;Code GUI&lt;br style=&quot;border-color: var(--border-color);&quot;&gt;(45, 90)" style="rounded=0;whiteSpace=wrap;html=1;" vertex="1" parent="1">
          <mxGeometry x="410" y="230" width="120" height="60" as="geometry" />
        </mxCell>
        <mxCell id="HJmFfL-IA-otd9AgBnYl-8" value="(ES,EF)&lt;br style=&quot;border-color: var(--border-color);&quot;&gt;Code Functions&lt;br style=&quot;border-color: var(--border-color);&quot;&gt;(55, 150)" style="rounded=0;whiteSpace=wrap;html=1;" vertex="1" parent="1">
          <mxGeometry x="410" y="360" width="120" height="60" as="geometry" />
        </mxCell>
        <mxCell id="HJmFfL-IA-otd9AgBnYl-9" value="(ES,EF)&lt;br style=&quot;border-color: var(--border-color);&quot;&gt;Integration &amp;amp; Testing&lt;br style=&quot;border-color: var(--border-color);&quot;&gt;(165, 285)" style="rounded=0;whiteSpace=wrap;html=1;" vertex="1" parent="1">
          <mxGeometry x="580" y="230" width="120" height="60" as="geometry" />
        </mxCell>
        <mxCell id="HJmFfL-IA-otd9AgBnYl-10" value="(ES,EF)&lt;br style=&quot;border-color: var(--border-color);&quot;&gt;Final&lt;br style=&quot;border-color: var(--border-color);&quot;&gt;(285, 285)" style="whiteSpace=wrap;html=1;aspect=fixed;" vertex="1" parent="1">
          <mxGeometry x="740" y="225" width="70" height="70" as="geometry" />
        </mxCell>
      </root>
    </mxGraphModel>
  </diagram>
</mxfile>
